<svg xmlns="http://www.w3.org/2000/svg" viewBox="0 0 500 500"><g id="freepik--background-complete--inject-27"><rect x="62.77" y="376.37" width="35.16" height="11.19" style="fill:#ebebeb"></rect><rect x="242.11" y="102.95" width="35.16" height="11.19" style="fill:#ebebeb"></rect><path d="M78.32,401.67c-5.86.1-20.63.35-26.29.42l-8.87,0h-.45v-.46l0-11.19V390h.5l17.58.07c4.37,0,13.2.14,17.58.2h.24v.23l-.23,11.19Zm0,0-.24-11.19.24.24c-4.39.06-13.2.16-17.58.2L43.16,391l.5-.5,0,11.19-.46-.45,8.71,0c5.57.07,20.68.32,26.45.41Z" style="fill:#ebebeb"></path><path d="M407.1,261.19c-5.86.1-20.63.35-26.29.41l-8.87,0h-.45v-.46L371.44,250v-.5h.5l17.58.07c4.38,0,13.21.13,17.58.19h.24V250l-.24,11.19Zm0,0L406.86,250l.24.24c-4.38.06-13.19.15-17.58.19l-17.58.07.5-.5,0,11.19-.46-.46,8.72,0c5.57.06,20.68.31,26.44.41Z" style="fill:#ebebeb"></path><path d="M387.49,275.3c-5.86.1-20.63.35-26.29.41l-8.87.05h-.45v-.46l-.05-11.19v-.5h.5l17.58.07c4.38,0,13.2.13,17.58.19h.24v.23l-.24,11.19Zm0,0-.24-11.19.24.24c-4.39.06-13.19.15-17.58.19l-17.58.07.5-.5,0,11.19-.46-.46,8.71.05c5.58.06,20.69.31,26.45.41Z" style="fill:#ebebeb"></path><rect x="332.8" y="250" width="35.16" height="11.19" style="fill:#ebebeb"></rect><rect x="421.68" y="390.48" width="35.16" height="11.19" style="fill:#ebebeb"></rect><rect x="402.07" y="44.93" width="35.16" height="11.19" style="fill:#ebebeb"></rect><path d="M456.84,70.23c-5.86.1-20.63.35-26.29.42l-8.87,0h-.45v-.46L421.18,59v-.5h.5l17.58.07c4.38,0,13.2.13,17.58.2h.24V59l-.24,11.19Zm0,0L456.6,59l.24.24c-4.39.06-13.19.16-17.58.19l-17.58.07.5-.5,0,11.19-.46-.45,8.71,0c5.58.06,20.69.32,26.45.41Z" style="fill:#ebebeb"></path><path d="M97.93,56.12c-5.86.1-20.63.35-26.29.42l-8.87,0h-.45v-.46l0-11.19v-.5h.5l17.58.07c4.38,0,13.2.13,17.58.2h.24v.23l-.24,11.19Zm0,0-.24-11.19.24.24c-4.39.06-13.2.16-17.58.19l-17.58.07.5-.5,0,11.19-.46-.45,8.71,0c5.57.06,20.68.32,26.45.41Z" style="fill:#ebebeb"></path><path d="M71.11,40.62V198.28H186.59V40.62ZM182.33,194h-107V44.88h107Z" style="fill:#ebebeb"></path><rect x="75.38" y="44.88" width="106.95" height="149.14" style="fill:#fff"></rect><rect x="75.37" y="127.32" width="106.95" height="4.26" transform="translate(257.69 258.89) rotate(180)" style="fill:#ebebeb"></rect><rect x="63.27" y="198.28" width="131.16" height="12.23" transform="translate(257.69 408.78) rotate(180)" style="fill:#dbdbdb"></rect><path d="M75.37,44.87h107V154.3H75.37Zm103,4H79.32V150.36h99.06Z" style="fill:#dbdbdb"></path><rect x="146.06" y="44.87" width="2.13" height="105.48" style="fill:#dbdbdb"></rect><rect x="109.51" y="44.87" width="2.13" height="105.48" style="fill:#dbdbdb"></rect><path d="M313.42,40.62V198.28H428.89V40.62ZM424.63,194H317.68V44.88h107Z" style="fill:#ebebeb"></path><rect x="317.68" y="44.88" width="106.95" height="149.14" style="fill:#fff"></rect><rect x="317.68" y="127.32" width="106.95" height="4.26" transform="translate(742.31 258.89) rotate(180)" style="fill:#ebebeb"></rect><rect x="305.57" y="198.28" width="131.16" height="12.23" transform="translate(742.31 408.78) rotate(180)" style="fill:#dbdbdb"></rect><path d="M317.68,44.87h107V154.3H317.68Zm103,4H321.62V150.36h99.06Z" style="fill:#dbdbdb"></path><rect x="388.36" y="44.87" width="2.13" height="105.48" style="fill:#dbdbdb"></rect><rect x="351.81" y="44.87" width="2.13" height="105.48" style="fill:#dbdbdb"></rect><polygon points="122.64 353.04 82.39 353.04 59.35 238.19 96.21 221.25 122.64 353.04" style="fill:#dbdbdb"></polygon><polygon points="237.85 353.04 122.64 353.04 96.21 221.25 211.42 221.25 237.85 353.04" style="fill:#ebebeb"></polygon><rect x="40.29" y="291.42" width="61.69" height="126.58" style="fill:#dbdbdb"></rect><polygon points="267.46 417.99 250.6 417.99 225.49 291.42 267.46 291.42 267.46 417.99" style="fill:#dbdbdb"></polygon><rect x="101.98" y="291.42" width="33.9" height="126.58" style="fill:#ebebeb"></rect><rect x="267.46" y="291.42" width="33.9" height="126.58" style="fill:#ebebeb"></rect><rect x="135.87" y="353.04" width="131.59" height="64.95" style="fill:#ebebeb"></rect><rect x="135.87" y="324.96" width="131.59" height="28.34" style="fill:#ebebeb"></rect><path d="M110.28,291.42l12.8-.23,12.79-.16h.39v.39l.14,14.81.06,14.81c0,9.88.07,19.75,0,29.63s0,19.75-.17,29.63-.22,19.75-.43,29.62q-.31-14.81-.43-29.62c-.12-9.88-.13-19.75-.17-29.63s0-19.75,0-29.63l.05-14.81.14-14.81.39.39-12.79-.16Z" style="fill:#dbdbdb"></path><path d="M267.46,291.42c.26,9.91.39,19.82.49,29.73l.15,29.74L268,380.62l-.18,14.87-.31,14.87-.31-14.87L267,380.62l-.15-29.73.15-29.74C267.07,311.24,267.19,301.33,267.46,291.42Z" style="fill:#dbdbdb"></path><path d="M267.46,353c-11,.26-21.93.39-32.9.49l-32.89.15-32.9-.15-16.45-.18L135.87,353l16.45-.31,16.45-.18,32.9-.15,32.89.15C245.53,352.65,256.49,352.78,267.46,353Z" style="fill:#dbdbdb"></path><path d="M267.46,325c-11,.26-21.93.39-32.9.49l-32.89.15-32.9-.15-16.45-.18L135.87,325l16.45-.31,16.45-.18,32.9-.15,32.89.15C245.53,324.57,256.49,324.7,267.46,325Z" style="fill:#dbdbdb"></path><polygon points="63.73 417.99 62.9 428.25 60.95 451.94 52.02 451.94 50.07 428.25 49.23 417.99 63.73 417.99" style="fill:#c7c7c7"></polygon><polygon points="49.23 417.99 63.73 417.99 62.9 428.25 50.07 428.25 49.23 417.99" style="fill:#a6a6a6"></polygon><polygon points="126.17 417.99 125.34 428.25 123.39 451.94 114.46 451.94 112.51 428.25 111.68 417.99 126.17 417.99" style="fill:#c7c7c7"></polygon><polygon points="111.68 417.99 126.17 417.99 125.34 428.25 112.51 428.25 111.68 417.99" style="fill:#a6a6a6"></polygon><polygon points="229.74 417.99 228.91 428.25 226.96 451.94 218.03 451.94 216.08 428.25 215.25 417.99 229.74 417.99" style="fill:#c7c7c7"></polygon><polygon points="215.25 417.99 229.74 417.99 228.91 428.25 216.08 428.25 215.25 417.99" style="fill:#a6a6a6"></polygon><polygon points="292.2 417.99 291.36 428.25 289.42 451.94 280.48 451.94 278.54 428.25 277.7 417.99 292.2 417.99" style="fill:#c7c7c7"></polygon><polygon points="292.2 417.99 291.36 428.25 278.54 428.25 277.7 417.99 292.2 417.99" style="fill:#a6a6a6"></polygon></g><g id="freepik--Floor--inject-27"><path d="M40.29,451.94c134.35-.61,285.07-.62,419.42,0-134.35.62-285.07.61-419.42,0Z" style="fill:#263238"></path></g><g id="freepik--Plant--inject-27"><path d="M77.31,282.41a98.14,98.14,0,0,1,2.26-15.92c1.12-4.71,2.71-9.52,5.68-13.42,2.72-3.55,6.61-6.38,11.14-6.94,4.36-.53,8.46,1.41,11.72,4.16,4,3.41,7.13,7.92,10,12.29a151,151,0,0,1,8.67,15.19c.09.18-.17.32-.26.15a94.3,94.3,0,0,0-7.75-12.72,80.54,80.54,0,0,0-8.94-10.82c-3-2.92-6.8-5.66-11.13-5.8s-8.3,2.29-10.9,5.62c-2.91,3.72-4.38,8.37-5.49,12.9a96.62,96.62,0,0,0-2.24,15.15c-.85,10.48-1.08,21-1.32,31.53q-.2,8.93-.27,17.85c0,3,0,6-.07,9a55.18,55.18,0,0,1-.35,8.72c-.1.58-1,.53-1.15,0a51.78,51.78,0,0,1-.4-8.26c0-2.86-.08-5.72-.1-8.57,0-5.56-.08-11.11-.06-16.67C76.42,304.72,76.55,293.53,77.31,282.41Z" style="fill:#263238"></path><path d="M92.28,274.5c.55-3,1.55-6.82,3.24-9.12,3-4.13,6.31-2.33,3.28,2.24a27.28,27.28,0,0,0-4.25,11.26s5.09,7.29,11.24,10.88c-.26-2.8-1.05-7.11-.5-11.27,1.18-9,6.62-8.49,5.27-1.34-1.08,5.73-1.52,11.82-1.23,14.46a30.74,30.74,0,0,0,6.58,3.22c-.36-1-.73-2.29-1.14-3.81-2.19-8.07,3.19-10.59,3.36-6a64.14,64.14,0,0,0,2.09,11.45c3,1,5.4,1.67,6.9,2.19a25.22,25.22,0,0,1,10.08,6.9,31.59,31.59,0,0,0,6.87-8.9c-1.88-1.62-4.85-4-9-6.94-7.73-5.46-5-12.36,1.09-8.07,4.43,3.1,7.85,8.83,9.41,11.78a48,48,0,0,0,3.51-16.12c-6.08-5.7-21.09-13.65-16.57-13.65,4.08,0,13.19,6,16.54,8.28a43.77,43.77,0,0,0-.52-4.68c-5.72-3.75-24.3-9.59-21.34-11.27,3.25-1.84,16.22,4.17,20.14,6.07a23.48,23.48,0,0,0-3.44-7.12c-7.9-10.59-22.15-14.23-28.37-12.22-4.4,1.43-3.11,12.6-4.06,12.22C93.82,247.78,85.78,252.81,92.28,274.5Zm43.33-1.22c1.25-1.52,7,2.94,5.37,5.38S134,275.22,135.61,273.28Zm-30.31-9.53c1.52,1-.73,6.62-3.09,4.91C100.21,267.2,103.76,262.77,105.3,263.75Z" style="fill:#FFC727"></path><path d="M107.61,265.48c.8-1.58,1.63-3.15,2.54-4.66a27,27,0,0,1,2.92-4.24c-.25-.31-.49-.63-.75-.93-.11-.13.07-.3.18-.18.3.34.58.69.87,1a.28.28,0,0,1,.12.14q1.64,2,3.1,4a48,48,0,0,1,5.14,1.49c1.73.58,3.45,1.18,5.13,1.89.18.08.09.37-.08.29-1.67-.74-3.37-1.45-5.1-2s-3.3-1-5-1.45c.54.77,1.07,1.53,1.58,2.31a61.13,61.13,0,0,1,9.08,3.71c3.06,1.46,6,3.15,9,4.85.17.1,0,.36-.15.26a97.6,97.6,0,0,0-8.91-4.62c-2.85-1.33-5.79-2.42-8.65-3.69C125.83,275,130.16,288,136,300c.08.17-.19.32-.26.14-1.77-4.22-3.8-8.33-5.73-12.49-1.73-3.73-3.41-7.48-5.14-11.21q-.76-1.63-1.56-3.27c.32,6,.19,12.15,1.18,18.1a.15.15,0,1,1-.3,0c-.42-6.43-1.55-12.76-1.5-19.23a.24.24,0,0,1,0-.09c-1.22-2.46-2.53-4.88-3.94-7.24-2.39,5.63-4.9,11.35-6,17.4,0,.18-.33.1-.28-.09,1.62-6.06,3.13-12.13,6-17.74a67.44,67.44,0,0,0-5.09-7.33c-.8,1.5-1.83,2.91-2.74,4.34s-1.76,2.81-2.59,4.25a60.81,60.81,0,0,0-4.51,9.55c-.07.18-.36.08-.29-.09C104.64,271.82,106,268.6,107.61,265.48Z" style="fill:#263238"></path><path d="M50.71,279.19c4.64-4.65,10-10.75,17.18-10.74,6.91,0,12,5.58,14.91,11.32,3.06,6,4.15,12.81,5,19.42a238.48,238.48,0,0,1,1.83,23.88c.12,4.43.11,8.87,0,13.3a87.44,87.44,0,0,1-1,13.43c-.13.71-1.27.74-1.32,0-.2-3.74,0-7.49,0-11.22s0-7.36-.18-11c-.27-7.44-.81-14.87-1.68-22.26-.77-6.45-1.37-13.09-3.3-19.33-1.74-5.63-5-12.06-10.71-14.53C63.63,268,56,274.17,51,279.38,50.81,279.51,50.58,279.32,50.71,279.19Z" style="fill:#263238"></path><path d="M27.08,289.57h0c0,.95.09,1.89.16,2.81a16.78,16.78,0,0,1,7.59-3.15c6.57-.69,6.15,4.31,1.76,4.52a24.9,24.9,0,0,0-9,1.81c1.07,8.68,3.46,15.67,3.82,15.76a126.84,126.84,0,0,0,17.37-2.2c-1.63-3.48-5.36-8.11-3.46-8.49s4,3.75,5,8.17A82.39,82.39,0,0,0,63,305.34c-2.9-2.51-7.37-5.63-5.66-6.95s5.26,3.06,7.38,6.25a25.63,25.63,0,0,0,5.46-3.05c-3.89-5.73-13.39-6.89-12.15-11s10.12,1.6,14.11,9.27c4.69-4.87,6.06-11.75,5.57-17.62-4.08-.48-11.93.38-11.37-2.55s6.24-2.37,10.89-.66a16.16,16.16,0,0,0-2.73-6.46C70.16,267,57,274,57,274s1.4-13.2-3.6-15.48c-2.89-1.31-8-1.3-13.08,1.71,2.86.23,6.32,1.14,7.71,3.13,1.78,2.54-1,3.92-2.81,2.75-1.25-.83-3.6-3.45-7.84-3.79a26.08,26.08,0,0,0-4.74,5.25c-.48.68-.93,1.4-1.38,2.18a18,18,0,0,1,15.36.28c5.69,2.83,2.51,8.74-2.38,6.44s-9.56-4.55-14.75-3.25A36.88,36.88,0,0,0,27,288a25.56,25.56,0,0,1,8.43-4.05c5.65-1.49,7.36,1.89,1.15,2.53A24.91,24.91,0,0,0,27.08,289.57ZM34,280.49c-.4-1.84,3.62-2.36,4.28-.88C38.81,280.88,34.35,282.32,34,280.49Zm34.32,10.15c.37-1,3.06.14,2.81,1.39C70.77,293.69,67.92,291.64,68.29,290.64Zm-19,6.44c1.95-.79,5,4.08,2.88,5.19S47.74,297.72,49.34,297.08Z" style="fill:#FFC727"></path><path d="M32.16,310.33c2.94-4.94,5.86-9.89,9-14.74,1.44-2.25,3-4.46,4.52-6.63-.23,0-.47-.12-.7-.16-.39-.09-.78-.16-1.17-.23-.91-.16-1.82-.29-2.74-.38s-1.72-.14-2.58-.15a12.81,12.81,0,0,0-2.77.15c-.11,0-.13-.15,0-.15.92,0,1.86-.08,2.78-.1s1.8,0,2.69.07,1.68.13,2.51.26c.46.07.92.15,1.37.24a8.21,8.21,0,0,1,.83.18c1.6-2.2,3.25-4.35,5-6.46a59,59,0,0,0-16.14-5.16c-.1,0-.06-.16,0-.14a54.54,54.54,0,0,1,16.37,5q1.41-1.74,2.84-3.46c1.07-1.28,2.21-2.54,3.17-3.9.07-.09.2,0,.12.09a55.26,55.26,0,0,0-3.74,4.58h0a56.51,56.51,0,0,1,6,4.82c2,1.74,3.87,3.54,5.73,5.38.07.07,0,.18-.1.11q-2.76-2.75-5.74-5.23c-2-1.65-4.09-3.18-6.09-4.82,0,0,0,0,0,0-.46.61-.92,1.22-1.38,1.81l-.69.91-.05.06c-.77,1-1.53,2-2.29,3a24.2,24.2,0,0,1,2.28,4.11c.66,1.39,1.23,2.83,1.76,4.28a61.38,61.38,0,0,1,2.46,9.24c0,.09-.12.14-.14,0a54.16,54.16,0,0,0-2.69-9.06c-.57-1.51-1.22-3-1.89-4.44s-1.36-2.62-1.93-4c-.66.88-1.32,1.76-2,2.65-.18.26-.36.53-.55.79a.08.08,0,0,1-.06.13h0c-2,2.83-4,5.73-5.82,8.66a2.75,2.75,0,0,1,.25.64c.12.35.24.71.34,1.07.21.73.38,1.46.52,2.2s.22,1.4.29,2.1a19.08,19.08,0,0,0,.18,2.39.08.08,0,1,1-.15,0,7.66,7.66,0,0,0-.16-2.23c-.11-.76-.25-1.52-.43-2.27s-.34-1.35-.54-2c-.1-.34-.21-.67-.32-1-.06-.17-.15-.36-.21-.55-.87,1.38-1.74,2.76-2.6,4.16-1.7,2.75-3.38,5.52-5.07,8.28C32.29,310.59,32.07,310.47,32.16,310.33Z" style="fill:#263238"></path><path d="M77.62,348.2c.08-2.79.52-5.61.82-8.39s.62-5.58.92-8.37c.57-5.39.89-10.89,2.16-16.17a23.38,23.38,0,0,1,6.57-12.08,10.68,10.68,0,0,1,6.44-3.08,11.05,11.05,0,0,1,6.84,2.11,23.77,23.77,0,0,1,5.76,6.07,59.11,59.11,0,0,1,4.48,7.29c0,.09-.1.15-.15.06a37.28,37.28,0,0,0-9.71-10.88,11.36,11.36,0,0,0-6.12-2.55,8.25,8.25,0,0,0-5.93,2.37c-3.26,2.83-5.14,7-6.26,11.09-1.33,4.85-1.76,10-2.43,14.93-.39,3-.77,5.92-1.16,8.87s-.63,6-1.26,8.87A.49.49,0,0,1,77.62,348.2Z" style="fill:#263238"></path><path d="M91.36,326.5a15.33,15.33,0,0,0,3,3.1c-.46-2.73-1-7.57.36-10.15,2.14-4,4.66-2,3.39,1.47a28.66,28.66,0,0,0-2.06,9.88,43.34,43.34,0,0,0,9.28,4.38,15.76,15.76,0,0,1-.3-4.78c.42-4.28,3.7-4.2,2.85.25a28,28,0,0,0-.45,5.24,97.08,97.08,0,0,0,14.46,3.26,42.57,42.57,0,0,0,6-10.66c-3.49-.88-10.54-1.07-10.39-3.57.2-3.35,7-.77,11,1.66a26.86,26.86,0,0,0,1.21-9,45.4,45.4,0,0,0-9.61-1.59c-7.18-.62-6.82-4.69-1.62-4.6,3.83.07,8.68,2.42,11,3.64-1.49-9.76-8.94-16-14.91-16.26-10-.4-6.42,12.09-6.42,12.09s-6.8-4.79-13.22-4.66S84.5,316.94,91.36,326.5Zm26.8-18.07c-.22-1.4,4.26-1.74,4.49.06C122.92,310.52,118.39,309.86,118.16,308.43Zm7.21,14.66c-.1-.92,1.84-1.08,2.28.08C127.94,323.92,125.44,324,125.37,323.09Zm-24.1.86c1.51.21,2.37,5.62-.23,5.51C99.05,329.38,100,323.76,101.27,324Z" style="fill:#FFC727"></path><path d="M103.36,330c.25-.68.48-1.36.69-2-.2.7-.37,1.39-.5,2.1C103.52,330.14,103.31,330.09,103.36,330Z" style="fill:#263238"></path><path d="M106,321.26c.47-1.39,1-2.76,1.54-4.12q.44-1.09.9-2.16a9.07,9.07,0,0,1,.9-1.82,12.52,12.52,0,0,1-.81-1.75.05.05,0,0,1,.09-.05,20.86,20.86,0,0,1,2,3c.28.47.55,1,.82,1.43a13.82,13.82,0,0,1,1.69.27l1.8.36,1.79.42c.59.14,1.17.34,1.77.43a.09.09,0,1,1,0,.18,10.92,10.92,0,0,0-1.87-.48c-.58-.13-1.16-.23-1.74-.31s-1.17-.16-1.75-.22l-1.33-.11c.24.42.49.84.72,1.27,0,.06.07.13.11.2A5.45,5.45,0,0,1,114,318c.52.09,1,.19,1.55.3,1,.24,2.09.48,3.12.77,2.17.61,4.32,1.3,6.46,2,.12,0,0,.22-.08.18a65.39,65.39,0,0,0-6.48-1.8c-1-.23-2.06-.47-3.09-.68l-1.54-.33a9.47,9.47,0,0,1-1.2-.26c1.1,2,2.14,4.11,3.1,6.23,2.08,4.61,3.83,9.35,5.62,14.08,0,.12-.14.19-.18.08a129.25,129.25,0,0,0-6-13.77c-.4-.82-.82-1.63-1.22-2.45,0,.17-.08.34-.11.5-.1.56-.2,1.12-.29,1.68-.19,1.12-.38,2.24-.55,3.36a39.31,39.31,0,0,0-.81,7,.1.1,0,1,1-.19,0c.18-1.11.18-2.27.25-3.4s.16-2.35.29-3.52.28-2.25.47-3.37c.09-.56.19-1.12.29-1.68a3.1,3.1,0,0,1,.32-1.21c-.59-1.18-1.17-2.37-1.77-3.54s-1.12-2.21-1.69-3.3c-.25-.47-.51-.93-.77-1.41a13.56,13.56,0,0,1-.66,1.7l-.78,1.89c-.57,1.41-1.11,2.82-1.64,4.24-.76,2-1.6,4.06-2.23,6.15C104.81,325.37,105.33,323.28,106,321.26Z" style="fill:#263238"></path><path d="M104.05,327.91c0-.16.1-.32.14-.49C104.15,327.59,104.1,327.75,104.05,327.91Z" style="fill:#263238"></path><polygon points="60.84 342.77 61.55 357.71 63.36 445.61 103.08 445.61 104.9 357.71 105.61 342.77 60.84 342.77" style="fill:#37474f"></polygon><polygon points="60.84 342.77 61.55 357.71 104.9 357.71 105.61 342.77 60.84 342.77" style="fill:#263238"></polygon><rect x="58.02" y="336.72" width="50.41" height="12.09" transform="translate(166.45 685.53) rotate(180)" style="fill:#37474f"></rect><rect x="92.9" y="445.61" width="6.97" height="6.33" style="fill:#37474f"></rect><rect x="92.9" y="445.61" width="6.97" height="3.16" style="fill:#263238"></rect><rect x="66.58" y="445.61" width="6.97" height="6.33" style="fill:#37474f"></rect><rect x="66.58" y="445.61" width="6.97" height="3.16" style="fill:#263238"></rect></g><g id="freepik--Character--inject-27"><path d="M226.33,188.26c-1.76.2-9.43-.77-14.63,6.16-4.91,6.55-6.83,26.62-7.91,31s-6.83,5-8.23,10c-1.21,4.36,1.95,6,2.24,9.21.23,2.49-2.31,6.2-.08,9.9,2,3.37,5.66,2.7,7.84,3.77s3.5,6.16,7.54,7.57,7.67-2.25,9.82-2.2,4.64,6.67,11.67,6.17,9.12-6.43,12-7.57,10.18,1,13.54-2.63,4-8.42,5.5-10.19,4.64-1.44,6.55-5.55-1.9-6.76-2.4-10.34c-.35-2.49,1.89-4.76.37-8.58-2.08-5.26-8.5-4.21-10.88-9.6-1.87-4.24-5.64-22.6-16.66-27.23C235,185,226.33,188.26,226.33,188.26Z" style="fill:#263238"></path><path d="M204,224.35a6.28,6.28,0,0,1-1.91,2.34l-2.3,1.95a18.81,18.81,0,0,0-4.09,4.23,6,6,0,0,0-.74,5.33,9.36,9.36,0,0,0,1.45,2.45,10.77,10.77,0,0,1,1.7,2.69,5.19,5.19,0,0,1-.32,3.3c-.33,1-.71,1.89-1,2.83a7.17,7.17,0,0,0,.12,5.5,4.11,4.11,0,0,0,1.91,1.91,7.6,7.6,0,0,0,2.79.64c1,.08,2,.06,3,.08a5.11,5.11,0,0,1,2.92.7,5.38,5.38,0,0,0-2.92-.39c-1,.06-2,.17-3,.17a7.89,7.89,0,0,1-3.08-.54,4.88,4.88,0,0,1-2.38-2.15c-1.16-1.9-.92-4.28-.35-6.22.29-1,.65-1.95,1-2.88a4.22,4.22,0,0,0,.27-2.59c-.58-1.61-2.38-3.06-3-5.15a6.81,6.81,0,0,1,1-6.17,19.27,19.27,0,0,1,4.48-4.18l2.46-1.75A6.79,6.79,0,0,0,204,224.35Z" style="fill:#263238"></path><path d="M252.77,198.6c1.88,3.1,3,6.56,4.51,9.82.73,1.64,1.42,3.3,2.26,4.85a11.7,11.7,0,0,0,1.42,2.14,1.71,1.71,0,0,0,.41.4,2,2,0,0,0,.48.32c.38.21.78.39,1.18.57a51.16,51.16,0,0,1,4.92,2.35,9.16,9.16,0,0,1,3.91,4,5.71,5.71,0,0,1,.54,2.83,7.47,7.47,0,0,1-.85,2.67,11.56,11.56,0,0,0-1.74,5,11,11,0,0,1,1.22-5.25,6.85,6.85,0,0,0,.64-2.49,4.93,4.93,0,0,0-.6-2.39,9,9,0,0,0-3.65-3.49,52.64,52.64,0,0,0-4.86-2.2c-.42-.2-.84-.4-1.25-.63a4.08,4.08,0,0,1-1.17-1,12.25,12.25,0,0,1-1.52-2.38,45,45,0,0,1-2.16-5l-1.81-5.09A47.2,47.2,0,0,0,252.77,198.6Z" style="fill:#263238"></path><path d="M267.39,248.26a9.46,9.46,0,0,0-1.2,3.61c-.28,1.25-.56,2.52-.91,3.77a18.86,18.86,0,0,1-1.4,3.7,8.5,8.5,0,0,1-2.6,3.17c-2.48,1.54-5.39,1.33-7.9.84-1.28-.25-2.53-.57-3.79-.79a8,8,0,0,0-3.78,0,7.53,7.53,0,0,1,3.85-.54c1.31.11,2.58.34,3.85.47,2.49.3,5.15.36,7.13-.92a7.56,7.56,0,0,0,2.29-2.72,22.9,22.9,0,0,0,1.51-3.46c.44-1.19.82-2.42,1.21-3.65.22-.62.44-1.23.69-1.83A3.71,3.71,0,0,1,267.39,248.26Z" style="fill:#263238"></path><path d="M213.23,261.12c9,20.57,21.64,48.81,28.47,51.87,17.75,7.95,53.8,14.79,66.61,12.07,4.82-1,5.79-39.54.6-38.62-9.58,1.68-48.25-1.19-51.12-2.66-2-1-18.35-19.86-31.33-31.44C208.05,235.91,210,253.74,213.23,261.12Z" style="fill:#d3766a"></path><path d="M361.6,299.1a2.1,2.1,0,0,1-1.35,1.4c2.53,2.31,4,4.79,2.67,7-.77,1.3-2.2,1.74-4,1.58,1.06,1.35,1.3,2.7.26,4-1.83,2.2-8.14.76-14.24-1.36,3.95,2.11,6.86,4.53,5.3,6.57-4.15,5.41-17.3-.79-26.8-3.74a32.47,32.47,0,0,0-9.08-1.65A7.41,7.41,0,0,0,313,313c-1.25.23-2.13.78-2.35,1.79-.36,1.81,3.4,3.77,6.2,4.26,5.31.9,11.23,6.72,10.7,10.06-.77,4.89-12.68,1.2-17.15.95-6-.33-15.43-4.25-16.16-4.42,0,0-.5-3.7-.9-8.87-.78-9.86-1.21-25,2.72-30,0,0,19.5-6.17,39.19-6C342,280.82,364,292.68,361.6,299.1Z" style="fill:#d3766a"></path><path d="M323.06,303.78a24.5,24.5,0,0,1,11.16,1.68c4.9,1.87,7.12,3.86,11.45,6.38a.1.1,0,0,1-.1.18c-2.06-1.2-9.11-4.88-11.24-5.82a23.56,23.56,0,0,0-11.27-2.35S323,303.78,323.06,303.78Z" style="fill:#263238"></path><path d="M325.26,295.17a54.53,54.53,0,0,1,12.44,1.66c5,1.28,9.37,4.23,13.64,7.06q3.84,2.53,7.58,5.26c.1.07,0,.25-.1.18q-6.52-4.41-13.3-8.4a36.8,36.8,0,0,0-13.59-4.84c-2.74-.39-3.91-.66-6.67-.84C325.21,295.25,325.21,295.16,325.26,295.17Z" style="fill:#263238"></path><path d="M327.46,287.25c4.48-.09,8.46-.27,12.78,1.18,5.72,1.92,10.86,5.6,13,7,2.34,1.59,4.62,3.26,6.88,5,.1.07,0,.23-.12.16a148.18,148.18,0,0,0-16-10.07,23.42,23.42,0,0,0-7.59-2.65,51.83,51.83,0,0,0-8.89-.6A0,0,0,1,1,327.46,287.25Z" style="fill:#263238"></path><path d="M250.24,272l-21.11,28.08s-16.59-34.89-18.57-46.53c-2.23-13.1,4.95-11.37,15.32-4.16S250.24,272,250.24,272Z" style="fill:#FFC727"></path><path d="M221.26,256.07a14.88,14.88,0,0,1-4.85,8.74c-.61.55-1.24,1.06-1.89,1.55l-.12-.32a17.07,17.07,0,0,0,5.13-5.66c1.87-3.66,2-8,1.38-12-.12-.78-.27-1.56-.47-2.34l.39.21A24.41,24.41,0,0,1,221.26,256.07Zm13.64,12.36c-.19-2.68-1.3-6.05-4.06-7.09-3.35-1.25-6.24,1.81-7.86,4.36-1.88,2.94-3.32,6.13-5.09,9.14.05.11.09.22.15.34,1.91-3.22,3.4-6.71,5.48-9.83a8.89,8.89,0,0,1,4.42-3.86,4.41,4.41,0,0,1,4.69,1.42c2.36,2.73,2.3,6.92,1.65,10.25a22.18,22.18,0,0,1-5.2,10.56,20.68,20.68,0,0,1-5.48,4.33c0,.09.07.17.11.26a21.63,21.63,0,0,0,8.84-9.15A20.93,20.93,0,0,0,234.9,268.43Zm-2.23,18.8a5.56,5.56,0,0,0-1.59,4,4.58,4.58,0,0,0,2,3.34l.12.08.19-.26-.16-.1a4.12,4.12,0,0,1-1.71-4.47,6.43,6.43,0,0,1,3.56-4,10.5,10.5,0,0,1,5.32-.73l.16-.21C237.68,284.64,234.73,285,232.67,287.23Zm-3.35-33.13a4.36,4.36,0,0,1-.95,2.55c-1.74,1.66-3.46-2.53-3.74-3.73a11.89,11.89,0,0,1-.09-4.41l-.3-.2a13.81,13.81,0,0,0-.17,1.59,10,10,0,0,0,.85,4.83c.5,1.07,1.73,3.13,3.2,2.48s1.5-2.89,1.68-4.16l.09-.6-.28-.22C229.51,252.85,229.42,253.48,229.32,254.1Zm18.14,15a10.88,10.88,0,0,1-5-.08,4.25,4.25,0,0,1-3.07-4.38,9.59,9.59,0,0,1,.69-3l-.26-.25a7.52,7.52,0,0,0-.53,5.06c1.12,3.31,5.08,3.44,8,3l.45-.08Z" style="fill:#fff"></path><path d="M244.42,269.2c-3.18,3.21-11.33,14.18-12.7,16-.72.95-3.42,4.87-4.15,5.81-.09.12.11.24.21.12,1.38-1.8,2.95-3.45,4.36-5.24s10.1-12.65,12.41-16.56C244.6,269.22,244.49,269.12,244.42,269.2Z" style="fill:#263238"></path><path d="M242.71,282.05l-13.58,18.07s-16.59-34.9-18.57-46.54c-1.07-6.28,0-9.15,2.6-9.65h0Z" style="opacity:0.1"></path><path d="M335.56,452.16c3-1,.34-9.78-3.05-12.49-1.07-.86-5.06-2.89-10.06-5.3-11-5.3-26.83-12.37-26.83-12.37l13.49-57.13-55,.3s-15,53.65-14.91,57c0,.21,0,.41,0,.62.47,15.14,1.22,27.54,2.47,28.31C245.05,453.2,332.5,453.19,335.56,452.16Z" style="fill:#d3766a"></path><path d="M335.56,452.16c-3.06,1-90.52,1-93.85-1.07-1.24-.78-2-13.17-2.46-28.31,0-.2,0-.42,0-.62a63.65,63.65,0,0,1,1.71-8h56.52L295.61,422s15.83,7.08,26.84,12.36c5,2.41,9,4.44,10.07,5.31C335.9,442.37,338.59,451.15,335.56,452.16Z" style="fill:#ebebeb"></path><path d="M336.54,452.65c-3.11,1.05-92.16.94-95.54-1.21-1.3-.8-2-13.78-2.49-29.48,0-.17,0-.33,0-.5l57.45-.57,0,1s34.06,15.29,37.54,18.06S339.65,451.62,336.54,452.65Z" style="fill:#FFC727"></path><path d="M335.54,449.2c-15-.39-75.59-.53-90.46.23-.12,0-.12.09,0,.1,14.87.7,75.45.35,90.46-.09C335.85,449.43,335.85,449.21,335.54,449.2Z" style="fill:#263238"></path><path d="M302.34,421.06c-5.9-1.11-13.13-.21-17.65,4-.17.17.06.41.26.35a82.75,82.75,0,0,1,17.37-3.59A.38.38,0,0,0,302.34,421.06Z" style="fill:#263238"></path><path d="M306.6,423.63c-5.9-1.1-13.13-.21-17.64,4-.18.16.05.41.25.35a82.9,82.9,0,0,1,17.37-3.6A.38.38,0,0,0,306.6,423.63Z" style="fill:#263238"></path><path d="M310.87,426.21c-5.91-1.11-13.14-.21-17.65,4-.18.16,0,.41.25.35A82.88,82.88,0,0,1,310.84,427,.38.38,0,0,0,310.87,426.21Z" style="fill:#263238"></path><path d="M310,408.19c-2.32-3.2-6.64-1.77-9.11.3A31.46,31.46,0,0,0,291.82,422c0,.12,0,.19.14.21,0,.45.42.93.92.74,4.88-1.8,10.32-3.12,14.5-6.36C309.82,414.7,312.23,411.21,310,408.19Zm-10.32,10.53c-2.38.94-4.79,1.76-7.13,2.79,1.79-2.63,3.45-5.32,5.5-7.77a32.3,32.3,0,0,1,3.13-3.38c1.76-1.6,8.72-5,7.67,1.48C308.31,415.42,302.56,417.59,299.72,418.72Z" style="fill:#263238"></path><path d="M276.81,420.45c4.86,2.08,10.46,2,15.64,2.49a.73.73,0,0,0,.7-.95.16.16,0,0,0,.09-.24A31.6,31.6,0,0,0,281,411c-2.91-1.37-7.46-1.67-8.89,2C270.75,416.47,274,419.23,276.81,420.45Zm-2.66-4.22c-2.66-6,4.94-4.48,7-3.38a35.07,35.07,0,0,1,3.89,2.48,92.66,92.66,0,0,1,7.28,6.14c-2.53-.41-5.06-.59-7.6-.91C281.73,420.19,275.61,419.54,274.15,416.23Z" style="fill:#263238"></path><path d="M177.58,326.8s-9.86,35.65,7.34,46.21c11.48,7,62.22-2.7,64.38-9,4.07-11.85,4.08-16.19,4.08-16.19l-13,62.81,63.92.75s12-52,8.91-107.12c-1.14-20.39-28.55-26.56-47.62-16.41C247.08,297.71,214,325,214,325Z" style="fill:#37474f"></path><path d="M245.75,373.85c3.44-8.43,3.17-11.74,11.77-37.9,1.15-3.5,2.12-7.05,3.14-10.59s2.33-7.31,3.14-11.05c0-.18.33-.1.28.08-1,3.23-1.64,6.57-2.49,9.84s-1.69,6.41-2.59,9.59c-.38,1.38-.79,2.75-1.18,4.13l.51-.85c.75-1.29,1.5-2.58,2.28-3.85,1.62-2.62,3.57-5.08,5-7.81a.14.14,0,0,1,.25.14c-1.62,2.61-2.78,5.51-4.3,8.19-.74,1.3-1.51,2.57-2.3,3.84a25,25,0,0,1-2.3,3.39c-1.17,4-3.69,13.77-4.95,17.79-4,12.65-2.66,8.53-5.61,15.32C246.23,374.46,245.6,374.22,245.75,373.85Z" style="fill:#263238"></path><path d="M274.86,400.28c-9.62-.1-19.23-.64-28.85-.83-.18,0-.21-.28,0-.28,9.59-.06,19.17-.43,28.76-.32s19.22.59,28.84.91c.24,0,.28.39,0,.39C294,400.17,284.45,400.38,274.86,400.28Z" style="fill:#263238"></path><path d="M251.28,397.07c.88-4.25,2.11-8.43,3.23-12.61s2.25-8.39,3.41-12.57c2.31-8.37,4.73-16.72,7.14-25.06,1.36-4.74,2.84-9.45,4.29-14.16a.11.11,0,0,1,.22.05Q263.14,358,255.75,383c-1.4,4.73-2.66,9.52-4.32,14.16A.08.08,0,0,1,251.28,397.07Z" style="fill:#263238"></path><path d="M184.92,373c-17.2-10.55-7.35-46.21-7.35-46.21l30.67-1.49L250,362,249.3,364C247.14,370.31,196.4,380.06,184.92,373Z" style="fill:#263238"></path><path d="M304.59,410c-.2.95-.32,1.44-.32,1.44l-63.92-.75,10-48.34Z" style="fill:#263238"></path><path d="M46.67,458.75c-.57,3.15,8.41,5,12.41,3.35a87.12,87.12,0,0,0,9.5-6.26c9.94-7.1,23.76-17.56,23.76-17.56l47,2.84,26.2-48.31s-43.19-2.49-46.16-4l-.55-.29c-13.49-6.88-24.72-12.19-26-11.47C89.35,378.93,47.24,455.58,46.67,458.75Z" style="fill:#d3766a"></path><path d="M127.6,390l-24.71,48.89-10.55-.64s-13.83,10.45-23.77,17.56c-4.52,3.21-8.21,5.73-9.48,6.26-4,1.67-13-.2-12.42-3.35S89.35,378.93,92.8,377c1.28-.71,12.51,4.59,26,11.48l.55.27C120.08,389.16,123.24,389.6,127.6,390Z" style="fill:#ebebeb"></path><path d="M45.77,459.38c.58-3.23,43.56-81.22,47.08-83.15,1.32-.75,13.05,4.85,27,12l.44.23L93.15,439.1l-.84-.49s-29.8,22.5-33.9,24.21S45.17,462.6,45.77,459.38Z" style="fill:#FFC727"></path><path d="M49.28,460.16c7.56-13,36.86-66,43.36-79.38,0-.11,0-.15-.09,0C84.77,393.42,55.91,446.68,49.06,460,48.92,460.33,49.12,460.44,49.28,460.16Z" style="fill:#263238"></path><path d="M89.92,444.63c3.82-4.65,6.51-11.41,5-17.39-.06-.24-.38-.15-.42.05a83.3,83.3,0,0,1-5.22,16.95A.38.38,0,0,0,89.92,444.63Z" style="fill:#263238"></path><path d="M85.61,447.12c3.82-4.64,6.51-11.41,5-17.39-.06-.23-.39-.15-.43,0a83.39,83.39,0,0,1-5.22,17A.38.38,0,0,0,85.61,447.12Z" style="fill:#263238"></path><path d="M81.31,449.61c3.81-4.64,6.5-11.4,5-17.39-.06-.23-.39-.14-.43,0a82.76,82.76,0,0,1-5.22,17A.38.38,0,0,0,81.31,449.61Z" style="fill:#263238"></path><path d="M97.5,457.57c3.92-.49,4.74-5,4.12-8.13a31.45,31.45,0,0,0-7.46-14.5.16.16,0,0,0-.25,0,.74.74,0,0,0-1.1.46c-.77,5.14-2.23,10.54-1.4,15.77C91.89,454.24,93.79,458,97.5,457.57Zm-4.26-14.11c.32-2.54.76-5,1-7.6a93.91,93.91,0,0,1,4.17,8.56,32.1,32.1,0,0,1,1.45,4.38c.56,2.31.18,10-5,6C92,452.58,92.86,446.48,93.24,443.46Z" style="fill:#263238"></path><path d="M102.76,422.54C98.59,425.8,96,430.75,93,435.05a.73.73,0,0,0,.49,1.07c0,.1,0,.2.18.19A31.57,31.57,0,0,0,109,430.78c2.61-1.89,5.06-5.73,2.52-8.76C109.16,419.15,105.19,420.64,102.76,422.54Zm5-.3c6.54.56,1.55,6.48-.43,7.8a34.37,34.37,0,0,1-4,2.21,94.79,94.79,0,0,1-8.89,3.43c1.58-2,3-4.15,4.46-6.23C100.61,427,104.13,421.92,107.73,422.24Z" style="fill:#263238"></path><path d="M218,318.07a259.75,259.75,0,0,1,1.48,26.18S280.2,376.06,283,406.31c1,10.71-.45,30.78-21.46,39.93-23.47,10.22-153.18,3.18-153.18,3.18l16.21-59.72,57.21,0s-40.37,6.42-44.76-20.48c-4.07-25,11.28-51.18,11.28-51.18Z" style="fill:#37474f"></path><path d="M121.74,446.5c1.43-6.88,2.81-13.79,4.41-20.64s3.3-13.69,5.1-20.49c.51-1.92,1-3.84,1.56-5.76.25-.91.5-1.82.76-2.73a28.21,28.21,0,0,1,.84-2.75c0-.1.15,0,.14.05a47.33,47.33,0,0,1-1,5.28c-.36,1.67-.71,3.33-1.07,5q-1.12,5.12-2.29,10.23c-1.57,6.82-3.31,13.59-5.08,20.35q-1.52,5.78-3,11.53C122,446.78,121.69,446.73,121.74,446.5Z" style="fill:#263238"></path><path d="M162,389.72c4.64-.33,9.28-.48,13.93-.57s9.29,0,13.94,0,9.29.34,13.92.75a101.72,101.72,0,0,1,13.8,2l-3.45-.44-3.47-.33c-2.31-.2-4.61-.39-6.93-.49-4.63-.27-9.26-.46-13.9-.54s-9.27-.19-13.91-.25Z" style="fill:#263238"></path><path d="M161,323a166.93,166.93,0,0,0-5.39,16.24A105.47,105.47,0,0,0,152.29,356a48.11,48.11,0,0,0-.18,8.48,21.1,21.1,0,0,0,2.06,8.06,11.41,11.41,0,0,0,2.48,3.23,19.26,19.26,0,0,0,3.4,2.39,37.63,37.63,0,0,0,7.81,3.14,105.63,105.63,0,0,0,16.74,3c5.66.66,11.35,1.12,17,1.7a123.56,123.56,0,0,1,17,2.64,33.53,33.53,0,0,1,8.17,3,38.33,38.33,0,0,1,7.11,5l1.29,1.14-1.74,0-46.26-.63L164.1,397c-7.71,0-15.42-.05-23.13.16,7.7-.45,15.42-.57,23.13-.7s15.42-.16,23.14-.18l23.13,0,23.14.21-.45,1.13a36.83,36.83,0,0,0-6.86-4.82,31.51,31.51,0,0,0-7.87-2.86,137,137,0,0,0-16.83-2.6c-5.67-.6-11.37-1.09-17.06-1.78a106.69,106.69,0,0,1-16.93-3.16,36.6,36.6,0,0,1-8-3.32,21.38,21.38,0,0,1-3.56-2.58,12.29,12.29,0,0,1-2.66-3.56,22,22,0,0,1-2.05-8.46,48.73,48.73,0,0,1,.29-8.63,99.81,99.81,0,0,1,3.66-16.78A152.52,152.52,0,0,1,161,323Z" style="fill:#263238"></path><path d="M211.4,317.44a.11.11,0,0,1,.22,0c.24,2.07,1,13.88,1.33,18.33.12,1.59,0,4.42,2.35,4.41,1.83,0,2.74-2,2.94-3.54.25-1.89-.76-15.61-1-20.17,0-.13.21-.14.23,0,.84,4.57,2.47,19.11,2,21.15a4.68,4.68,0,0,1-2.83,3.66,30.66,30.66,0,0,1-.08,5.39c0,.15-.48.19-.51.07h0c.08-1.07-.49-5.21-.48-5.23a3.3,3.3,0,0,1-2.94-1.35C211,338,211.36,322.7,211.4,317.44Z" style="fill:#263238"></path><path d="M204.84,352.48c1.65-1.14,3.36-2.18,5.09-3.2s3.47-2,5.24-2.93,3.56-1.84,5.38-2.67,3.66-1.65,5.55-2.32c-.86.53-1.74,1-2.6,1.51l-2.62,1.46c-1.74,1-3.51,1.91-5.27,2.85s-3.54,1.86-5.34,2.73l-2.69,1.32C206.66,351.64,205.76,352.08,204.84,352.48Z" style="fill:#263238"></path><path d="M161.75,343c3.22,0,13.26.58,18.05-3.47,3.87-3.27,5.57-14.44,6.24-17.5,0-.16.26-.1.26,0A35.18,35.18,0,0,1,185,332.3c-.78,2.83-1.83,6-4.11,8s-5.67,2.82-8.75,3.2a40.23,40.23,0,0,1-10.4-.15A.17.17,0,0,1,161.75,343Z" style="fill:#263238"></path><path d="M227,305.89l-4.86,24.63-78.88-8.08s28.84-59.79,53.35-78.46c9.75-7.42,17.75-4.11,23.4,2.92,1.29,1.61,15.71,32,16.12,42.43C236.41,297.86,227,305.89,227,305.89Z" style="fill:#FFC727"></path><path d="M150.65,308a34.58,34.58,0,0,1-.06,6.19c-.42,3.31-2.07,7.4-5.72,8.16a4.87,4.87,0,0,1-1.65.07l.07-.15a4.83,4.83,0,0,0,3.38-.85c3.7-2.49,4-7.61,3.88-11.62,0-.49,0-1-.07-1.48Zm8.93-15.91-.15.25c3.1.51,5.19,3.69,5.49,6.77.43,4.31-2.14,8.27-4.36,11.74-2.12,3.29-4.3,6.75-4.44,10.78a12.79,12.79,0,0,0,.1,2.14l.31,0a12.67,12.67,0,0,1,0-3.37c.55-4.16,3.2-7.61,5.34-11.08,2-3.23,3.94-7.06,3.23-11C164.58,295.49,162.59,292.62,159.58,292.09Zm22.12,14.73c-2-2.38-5.36-3.77-8.12-1.79-2.31,1.67-2.83,4.83-2.68,7.49.23,3.9,2.25,7.41,2.67,11.28a11.5,11.5,0,0,1,.05,1.76l.34,0c.21-3.54-1.49-7-2.31-10.35-.71-2.9-.83-6.68,1.19-9.11a4.92,4.92,0,0,1,4.53-1.71,7.3,7.3,0,0,1,4.51,3.09c2.72,3.75,1.84,8.47,1.33,12.76a23,23,0,0,0-.06,6.26l.29,0c-.47-2.89,0-5.87.36-8.82a22.5,22.5,0,0,0,0-6.4A9.8,9.8,0,0,0,181.7,306.82Zm12.18-.45a17.7,17.7,0,0,0-7.83-5.6c-3.68-1.29-7.67-1.46-11.29-2.94a11.83,11.83,0,0,1-4.72-3.39,15.84,15.84,0,0,1-2.76-5.29,22,22,0,0,1-1.13-7.84c-.11.16-.21.32-.31.49a21,21,0,0,0,.44,4.76c.71,3.6,2.21,7.31,5.13,9.68s6.71,2.95,10.26,3.68a28,28,0,0,1,5.57,1.62,16.83,16.83,0,0,1,4.32,2.79c5.13,4.56,7.53,11.82,7.08,18.57a18.15,18.15,0,0,1-1,5.11l.29,0a14.62,14.62,0,0,0,.69-2.49A24,24,0,0,0,193.88,306.37Zm-4.6-29.09a29.57,29.57,0,0,0-3.25-4.46c-2.37-2.78-5.09-5.57-6-9.21a8.72,8.72,0,0,1-.28-1.9,3.92,3.92,0,0,0-.25.32v.05c.3,3.45,2.42,6.31,4.58,8.87,1.21,1.43,2.47,2.82,3.58,4.33a19.7,19.7,0,0,1,2.91,5.63c1.09,3.39,1.71,8.17-.64,11.21a4,4,0,0,1-4.82,1.31,6.57,6.57,0,0,1-3.54-4.35c-1.1-4.14.67-8.42-.26-12.6a7.13,7.13,0,0,0-2.49-4.22,6.42,6.42,0,0,0-3.93-1.23,8.07,8.07,0,0,0-2.14.3l-.27.39a7.88,7.88,0,0,1,2.58-.4,5.8,5.8,0,0,1,4.58,2.16,9.16,9.16,0,0,1,1.63,5.45c.1,4-1.45,8.55.81,12.19a6.2,6.2,0,0,0,3.74,2.88,4.23,4.23,0,0,0,4-1.24c2.36-2.45,2.24-6.51,1.66-9.6A19.61,19.61,0,0,0,189.28,277.28Zm13.23-16.84c-.37-4.54-1.89-8.92-1.9-13.5a14.68,14.68,0,0,1,1.21-6l-.41.17a14.41,14.41,0,0,0-1.07,4.68c-.3,4.56,1.18,9,1.73,13.44a21.05,21.05,0,0,1,0,6.29,12.49,12.49,0,0,1-.9,3c-.38.86-.94,2.11-1.88,2.48s-1.93-.41-2.46-1.2a6.13,6.13,0,0,1-.88-3c-.17-2.34.22-4.67.26-7,.06-3.24-.82-7.1-4.1-8.52a6.84,6.84,0,0,0-2.87-.56l-.27.28a6,6,0,0,1,4.53,1.5c3.15,2.85,2.39,7.67,2.16,11.42-.11,1.94-.24,4.21.81,5.94.67,1.09,2,2.13,3.28,1.3a5,5,0,0,0,1.52-2.08,12,12,0,0,0,.94-2.62A19.27,19.27,0,0,0,202.51,260.44ZM210.44,283c3.27-1.36,5.51-4.43,7.31-7.36,2.05-3.36,3.58-7,5.77-10.32a10,10,0,0,1,3.56-3.51l-.08-.18a11.44,11.44,0,0,0-4,4c-2.11,3.3-3.67,6.93-5.76,10.25-1.94,3.07-4.45,6.28-8.13,7.21a4.8,4.8,0,0,1-4.62-.86c-1.43-1.41-1.38-3.61-.84-5.41.86-2.86,3.15-4.94,5.47-6.68s5.05-3.37,7.31-5.4a14.88,14.88,0,0,0,4.85-8.74,23.46,23.46,0,0,0,.16-6.49c-.17-.34-.32-.64-.47-.92.55,3.91.4,8.15-1.42,11.72-1.51,2.95-4.15,5-6.8,6.88a40.67,40.67,0,0,0-7,5.47c-1.9,2.06-3.41,5.13-2.57,8C204.14,284,207.77,284.14,210.44,283Zm22.67-5.87a21.67,21.67,0,0,1-4,6.56A21.42,21.42,0,0,1,218.9,290a22.2,22.2,0,0,1-5.9.8,49.25,49.25,0,0,1-6.52-.83,9.33,9.33,0,0,0-5.4.65,8.48,8.48,0,0,0-3.65,3.34,6.59,6.59,0,0,0-.68,5.48,5.39,5.39,0,0,0,2.75,3,9.31,9.31,0,0,0,8.86-.81,30.11,30.11,0,0,0,4.57-3.63c1.53-1.39,3.1-3.08,5.06-3.84,3.5-1.36,6.51,1.86,6.94,5.14.49,3.79-2.54,6.84-5.63,8.48s-6.86,2-10.16,3.43c-2.89,1.26-5.12,3.65-5.1,7,.06,6.94,8.42,12.91,14.91,10a11.41,11.41,0,0,0,4.32-3.57l.13-.68c-1.8,2.47-4.27,4.49-7.44,4.68a11.56,11.56,0,0,1-10-5.44c-1.88-3-2.35-7,.27-9.68,2.46-2.54,6.32-3,9.56-4s6.5-2.63,8.33-5.55a7.09,7.09,0,0,0-.4-8.29,5.45,5.45,0,0,0-3.27-2.07,6.14,6.14,0,0,0-4.7,1.61c-3.13,2.43-5.71,5.75-9.52,7.18-2.85,1.07-7,.71-8.73-2.09-2.38-3.79,1-8.5,4.67-9.73,2.17-.72,4.39-.27,6.58.14a23.48,23.48,0,0,0,5.8.39,21.89,21.89,0,0,0,18-11.87c.25-.5.49-1,.71-1.54Zm2,8.68.47-.2-.06-.28a6.81,6.81,0,0,0-2.83,1.87,5.56,5.56,0,0,0-1.59,4,4.58,4.58,0,0,0,2,3.34,8.18,8.18,0,0,0,1.71.89l.13-.3a7.12,7.12,0,0,1-1.69-.87,4.12,4.12,0,0,1-1.71-4.47A6.43,6.43,0,0,1,235.09,285.84Z" style="fill:#fff"></path><path d="M216.45,300.05a63.93,63.93,0,0,0-12,.22c-2,.25-4,.62-6,1.05-1,.21-2,.38-3,.54a10.14,10.14,0,0,1-3.1.15c-.09,0-.13.16,0,.18a16.38,16.38,0,0,0,2.87.48,16,16,0,0,0,2.84-.13c2-.24,4-.59,6.07-.85,4.08-.53,8.15-1.06,12.22-1.21C216.6,300.47,216.63,300.07,216.45,300.05Z" style="fill:#263238"></path><path d="M225.12,306.34a67.21,67.21,0,0,0-9.47-2.46,44.08,44.08,0,0,0-4.86-.56c-.78-.05-1.57-.09-2.35-.11s-1.74.1-2.6.06c-.09,0-.13.17,0,.18.8.07,1.59.31,2.39.44l2.41.38c1.61.26,3.21.54,4.82.78,3.23.48,6.43,1,9.63,1.63C225.23,306.71,225.28,306.39,225.12,306.34Z" style="fill:#263238"></path><path d="M208.4,244.69c-.17,1.59,3.55,13.57,10.38,15.58,2.23.65,6.33-11.34,6.33-11.34l.5-.82,7.06-11.43L221.35,222.3l-1.68-2s-1.72,3.26-3.83,7.33l-.3.58c-.13.23-.25.44-.36.66-.32.6-.65,1.22-1,1.85-.24.47-.47.93-.71,1.43s-.47,1-.72,1.5A84.2,84.2,0,0,0,208.4,244.69Z" style="fill:#d3766a"></path><path d="M215.84,227.67a26.94,26.94,0,0,0,9.77,20.44l7.06-11.43L221.35,222.3l-1.68-2S218,223.6,215.84,227.67Z" style="fill:#263238"></path><path d="M256.92,224c-6.5,22.67-20.81,21.34-25.7,19.93-4.43-1.27-19.37-6.18-15.26-29.4s16.71-27.36,27-25S263.41,201.29,256.92,224Z" style="fill:#d3766a"></path><path d="M253.78,217.14a14.17,14.17,0,0,1-1.44-.76,2.7,2.7,0,0,1-1.32-1,.86.86,0,0,1,.28-1,2.1,2.1,0,0,1,2.11.1A3.06,3.06,0,0,1,255,216,.9.9,0,0,1,253.78,217.14Z" style="fill:#263238"></path><path d="M238.79,213a14.87,14.87,0,0,0,1.63.11,2.63,2.63,0,0,0,1.68-.2.84.84,0,0,0,.28-1,2.07,2.07,0,0,0-1.84-1,3,3,0,0,0-2.14.51A.9.9,0,0,0,238.79,213Z" style="fill:#263238"></path><path d="M240.18,219.61c0-.06-.14,0-.16.11-.35,1.56-1,3.3-2.56,3.44-.05,0-.07.09,0,.1C239.23,223.46,240.09,221.15,240.18,219.61Z" style="fill:#263238"></path><path d="M239.21,217.62c-2.44-.84-4,4.12-1.68,4.9S241.27,218.33,239.21,217.62Z" style="fill:#263238"></path><path d="M238.16,217.59c-.52.15-1.09.52-1.63.41s-.92-.78-1.16-1.4c0-.06-.09,0-.11,0a1.9,1.9,0,0,0,.75,2.49c.89.41,1.81-.23,2.34-1.12C238.44,217.84,238.37,217.53,238.16,217.59Z" style="fill:#263238"></path><path d="M249.18,221.94c0-.06.1.11.07.17-.52,1.52-.87,3.35.36,4.29,0,0,0,.1,0,.08C248,225.71,248.44,223.29,249.18,221.94Z" style="fill:#263238"></path><path d="M251.05,220.76c2.52.58,1.17,5.59-1.16,5.05S248.93,220.28,251.05,220.76Z" style="fill:#263238"></path><path d="M252,221.37c.32.38.59,1,1.05,1.12s1.09-.25,1.58-.67c.05,0,.08,0,.06.07-.23,1-.81,1.88-1.78,1.81s-1.28-1-1.25-2C251.66,221.46,251.87,221.22,252,221.37Z" style="fill:#263238"></path><path d="M237,232.08c.24.48.43,1.1,1,1.34a4.23,4.23,0,0,0,1.77.19.05.05,0,0,1,0,.1,2.14,2.14,0,0,1-2.21.15,1.73,1.73,0,0,1-.72-1.76C236.8,232,236.93,232,237,232.08Z" style="fill:#263238"></path><path d="M245,228.38s-.35,2.39-.67,3.48c0,.1-.3.07-.68,0h0a5.37,5.37,0,0,1-4.46-3.39c0-.12.13-.2.21-.1a8.05,8.05,0,0,0,4.32,2.72c.16-.28.46-4.12.64-4.09a9.69,9.69,0,0,1,2.3,1.28c.88-5,.95-10,1.89-15,0-.18.3-.16.3,0,.31,5.32-.57,11.06-1.34,16.21C247.41,230.15,245.41,228.69,245,228.38Z" style="fill:#263238"></path><path d="M242.87,231.16a5.7,5.7,0,0,1-2.69,1.06,2.6,2.6,0,0,1-1.52-.34c-1-.6-.74-1.61-.29-2.4a6.08,6.08,0,0,1,.86-1.16A7.41,7.41,0,0,0,242.87,231.16Z" style="fill:#263238"></path><path d="M240.18,232.22a2.6,2.6,0,0,1-1.52-.34c-1-.6-.74-1.61-.29-2.4A2.66,2.66,0,0,1,240.18,232.22Z" style="fill:#ff9cbd"></path><path d="M214.94,218.4c3.89,1.2,6.67-6.9,6.67-6.9s8,1.84,13.3-9.13a18.23,18.23,0,0,1-5.71,8.76s14.52,1.69,23.17-8.83c0,0-3.74,5.51-6.46,7.15,0,0,6.32-.31,10.31-4.49,0,0,.94,7.41,2.43,9.73,0,0,5-24.95-18.59-27.49,0,0-14.61-2.29-22.35,7.94S214.94,218.4,214.94,218.4Z" style="fill:#263238"></path><polygon points="224.38 212.88 219.13 206.66 217.6 208.19 223.49 213.72 224.38 212.88" style="fill:#FFC727"></polygon><polygon points="223.02 214.46 216.76 209.27 215.51 211.04 222.3 215.44 223.02 214.46" style="fill:#FFC727"></polygon><path d="M219.07,217.26s-2.18-8.71-5.95-8.19-4,11.87-.84,14.63a4,4,0,0,0,5.76-.09Z" style="fill:#d3766a"></path><path d="M213.14,212.32a.06.06,0,0,0-.06.09c2.17,2,2.61,4.93,2.62,7.76a2.2,2.2,0,0,0-2.87-1.74c-.08,0-.06.15,0,.16a2.46,2.46,0,0,1,2.22,1.77,11.56,11.56,0,0,1,.42,2.5c0,.27.5.31.51,0v-.07C217.32,219.55,216.53,214,213.14,212.32Z" style="fill:#263238"></path><path d="M189.36,264.05c-4.1,22.62-14,69.34-4.91,83.75,11.92,18.91,53.25,32.78,64.06,36.86,4.72,1.78,18.38-28.85,15.89-33.63s-45.23-23.8-48.09-26.64-5.51-40.18-8.74-59.42C203.49,240.69,192.82,244.9,189.36,264.05Z" style="fill:#d3766a"></path><path d="M267.77,355.58c-1.93-1.7-1-2.73,3.51-2.46s22.38,5.15,23.56-1.21S270.78,339,263.16,339.15s-19.9,3.06-19.9,3.06C247.91,344.47,258.69,351,267.77,355.58Z" style="fill:#d3766a"></path><path d="M230.48,378.12c13.35,5.88,29.61,14,46,12.1a8.12,8.12,0,0,0,4.86-2.2c7.34-.73,9.2-4.41,9.2-4.41,6.63-2.78,8-6.81,8-6.81s8.61-.95,8.9-6.25c.34-5.94-11.82-3.44-19.35-6.16-17.24-6.22-40-19.89-44.81-22.18Z" style="fill:#d3766a"></path><path d="M265.42,370.57a117.92,117.92,0,0,0,15.4,4.59c5.84,1.13,11.65,1.24,17.55,1.5a.14.14,0,1,1,0,.28c-10.77,1.23-23.37-1.31-33.05-6.14C265.1,370.69,265.16,370.48,265.42,370.57Z" style="fill:#263238"></path><path d="M260.15,380.43c5.06,1.41,14,3.83,30.34,3,.06,0,.08.09,0,.1a56,56,0,0,1-30.43-2.85C259.77,380.56,259.81,380.34,260.15,380.43Z" style="fill:#263238"></path><path d="M257.41,385.79c8.71,2.06,14.46,2.26,23.85,2.19.05,0,.07.1,0,.1-10.66,1.2-14.66.43-24-2C257,386,257.07,385.71,257.41,385.79Z" style="fill:#263238"></path><path d="M213.07,291.31l-33.65,10.08s7.35-37.93,12.66-48.47c6-11.87,10.74-6.22,14.8,5.74S213.07,291.31,213.07,291.31Z" style="fill:#FFC727"></path><path d="M179.84,299.26c1.31.27,2.62.52,3.91.83l-.55.17-1.53-.34-1.88-.38C179.8,299.45,179.82,299.36,179.84,299.26Zm9.44-22a29.57,29.57,0,0,0-3.25-4.46l-.21-.24-.09.33c.66.77,1.3,1.55,1.9,2.37a19.7,19.7,0,0,1,2.91,5.63c1.09,3.39,1.71,8.17-.64,11.21a4,4,0,0,1-4.82,1.31,6.39,6.39,0,0,1-3.28-3.57l-.12.58a6.42,6.42,0,0,0,.37.68,6.2,6.2,0,0,0,3.74,2.88,4.23,4.23,0,0,0,4-1.24c2.36-2.45,2.24-6.51,1.66-9.6A19.61,19.61,0,0,0,189.28,277.28Zm13.23-16.84c-.36-4.48-1.85-8.8-1.9-13.31a1.41,1.41,0,0,0-.31-.21c0,4.15,1.27,8.19,1.77,12.28a21.05,21.05,0,0,1,0,6.29,12.49,12.49,0,0,1-.9,3c-.38.86-.94,2.11-1.88,2.48s-1.93-.41-2.46-1.2a6.13,6.13,0,0,1-.88-3c-.17-2.34.22-4.67.26-7,.06-3-.69-6.5-3.37-8.13-.05.08-.09.16-.13.24a5.41,5.41,0,0,1,.79.59c3.15,2.85,2.39,7.67,2.16,11.42-.11,1.94-.24,4.21.81,5.94.67,1.09,2,2.13,3.28,1.3a5,5,0,0,0,1.52-2.08,12,12,0,0,0,.94-2.62A19.27,19.27,0,0,0,202.51,260.44ZM210.44,283a9.88,9.88,0,0,0,1.48-.77c0-.11,0-.22,0-.33a9.15,9.15,0,0,1-2.78,1.23,4.8,4.8,0,0,1-4.62-.86c-1.43-1.41-1.38-3.61-.84-5.41.86-2.86,3.15-4.94,5.47-6.68l.65-.47c0-.12,0-.24-.07-.35a23.7,23.7,0,0,0-3.93,3.34c-1.9,2.06-3.41,5.13-2.57,8C204.14,284,207.77,284.14,210.44,283Zm2.57,7.75h0a49.25,49.25,0,0,1-6.52-.83,9.33,9.33,0,0,0-5.4.65,8.48,8.48,0,0,0-3.65,3.34,7.1,7.1,0,0,0-.88,2.32l.27-.08a8.44,8.44,0,0,1,5.31-5.68c2.17-.72,4.39-.27,6.58.14a25.33,25.33,0,0,0,4.34.43C213,291,213,290.9,213,290.78Z" style="fill:#fff"></path><path d="M210.06,285.57c-4.46.71-17.53,4.7-19.7,5.34-1.14.34-5.64,1.88-6.78,2.21-.15,0-.06.26.09.22,2.18-.63,4.43-1,6.62-1.63s15.64-4.19,19.82-6A.09.09,0,0,0,210.06,285.57Z" style="fill:#263238"></path><path d="M187.23,267.67c0-.16-.19-.19-.24,0-1,3.13-1.89,6.29-2.75,9.46a28.55,28.55,0,0,1,.63-5.11.06.06,0,1,0-.11,0,22.62,22.62,0,0,0-.72,5.91q-.89,3.31-1.71,6.65c-1.38,5.66-2.84,11.31-3.9,17a.4.4,0,0,0,.53.45c1.16-.39,2.3-.8,3.43-1.27.12-.05.09-.25,0-.23-1,.17-2,.39-3,.61,1.49-5.43,2.69-10.93,4-16.4C184.76,279.06,186.09,273.38,187.23,267.67Z" style="fill:#263238"></path><path d="M211.56,276.3c-.07-1.85-.14-3.7-.27-5.55,0,0-.06,0-.06,0,0,1.37,0,2.73.07,4.09-.51-2.67-1.07-5.34-1.75-8,0,0-.07,0-.06,0,.43,4.1,1.08,8.17,1.61,12.26s1.11,8,1.7,12c-.73.35-1.47.68-2.21,1a.12.12,0,0,0,.08.22c.86-.22,1.72-.43,2.59-.6a.42.42,0,0,0,.36-.43C213.13,286.34,212.46,281.3,211.56,276.3Z" style="fill:#263238"></path></g><g id="freepik--speech-bubble--inject-27"><path d="M319.73,156.31a28.65,28.65,0,0,1-47.88,18.13l-14.33,2.1,7.17-12.39a28.66,28.66,0,1,1,55-7.84Z" style="fill:#fff"></path><path d="M319.73,156.31A28.91,28.91,0,0,1,314,170.84a32,32,0,0,1-2.6,3,30.71,30.71,0,0,1-3,2.56,28.09,28.09,0,0,1-6.92,3.85,28.73,28.73,0,0,1-7.71,1.84,27.84,27.84,0,0,1-4,.07,25.21,25.21,0,0,1-4-.41,28.92,28.92,0,0,1-14.18-7l.34.11-14.32,2.2-1,.15.53-.91,7.13-12.42,0,.49a29,29,0,0,1,1.77-25.54,28.85,28.85,0,0,1,45.22-6.17A28.83,28.83,0,0,1,319.73,156.31Zm0,0a28.34,28.34,0,0,0-32.5-31A28.12,28.12,0,0,0,275.4,130a29.54,29.54,0,0,0-8.58,9.36,28.28,28.28,0,0,0-3.63,12.12,28.67,28.67,0,0,0,2,12.49l.11.25-.14.24L258,176.8l-.51-.76,14.35-2,.2,0,.14.14a28.22,28.22,0,0,0,13.72,7.06,25.52,25.52,0,0,0,3.89.48A27.63,27.63,0,0,0,301.32,180a26.86,26.86,0,0,0,6.91-3.73,31.72,31.72,0,0,0,3-2.53,29.29,29.29,0,0,0,2.6-3A28.74,28.74,0,0,0,319.73,156.31Z" style="fill:#263238"></path><path d="M303.38,158.73a37.57,37.57,0,0,1-12,10.45,37.49,37.49,0,0,1-12-10.45c-4.24-5.6-4-14.38,2-16.28,6.71-2.1,10,8,10,8s3.34-10.16,10-8C307.39,144.41,307.62,153.13,303.38,158.73Z" style="fill:#FFC727"></path></g><g id="freepik--Dog--inject-27"><path d="M390.07,408.21c-3.21-5.55-26.48-23.77-35.6-18.5s-13.38,31.67,4,51.91c0,0-8.77,1.14-10.55,2.12s-4.07,4.68-3.39,5.72,7.44,3.21,9.19,3.43,23.18-2.53,24.79-3.14-.23-2.9-.23-2.9,16,.68,20.44-2.84S395,416.69,390.07,408.21Z" style="fill:#FFC727"></path><path d="M390.07,408.21c-3.21-5.55-26.48-23.77-35.6-18.5s-13.38,31.67,4,51.91c0,0-8.77,1.14-10.55,2.12s-4.07,4.68-3.39,5.72,7.44,3.21,9.19,3.43,23.18-2.53,24.79-3.14-.23-2.9-.23-2.9,16,.68,20.44-2.84S395,416.69,390.07,408.21Z" style="opacity:0.1"></path><path d="M349.45,444.55a6.25,6.25,0,0,0-1.59.91,5.25,5.25,0,0,0-1.12,1.57,6.14,6.14,0,0,0-.53,2.06,2.59,2.59,0,0,0,.29,1.75c.07.1.26,0,.22-.11-.16-.55.68-2.86.91-3.41a7,7,0,0,1,.73-1.38,3.79,3.79,0,0,1,1.16-1.26C349.61,444.64,349.54,444.5,349.45,444.55Z" style="fill:#263238"></path><path d="M354.12,445.71a6.8,6.8,0,0,0-1.81,1,5.07,5.07,0,0,0-1.3,1.61c-.6,1.17-.88,2.85,0,4a.07.07,0,0,0,.13-.06,3.52,3.52,0,0,1,0-1.93,7.38,7.38,0,0,1,1.54-3.14,4.71,4.71,0,0,1,1.46-1.24C354.28,445.81,354.21,445.67,354.12,445.71Z" style="fill:#263238"></path><path d="M412.64,434.8c2.91-2.2,17.7-1.17,27-10.95s7.78-20.17,7.78-20.17a28.48,28.48,0,0,1-2.73,27.42c-9.45,14-22.23,14.64-22.23,14.64Z" style="fill:#FFC727"></path><path d="M346.35,348.88c-2.92,1.8-21.76,18.09-22.88,20.13s-5.11,7.87-6.61,7.89-8.28-15.09-10.12-16.51-11.84-2.43-13.12-1.78-5.65,2.34-5.17,4.21,10.39,5.39,10.93,6.74,3.24,16.73,5.59,18.57,14.59,7.45,17.36,7.56,31.43-9.12,32.23-11.2S347.68,348.06,346.35,348.88Z" style="fill:#FFC727"></path><path d="M346.35,348.88c-2.92,1.8-21.76,18.09-22.88,20.13s-5.11,7.87-6.61,7.89-8.28-15.09-10.12-16.51-11.84-2.43-13.12-1.78-5.65,2.34-5.17,4.21,10.39,5.39,10.93,6.74,3.24,16.73,5.59,18.57,14.59,7.45,17.36,7.56,31.43-9.12,32.23-11.2S347.68,348.06,346.35,348.88Z" style="opacity:0.1"></path><path d="M294.9,361.23a7,7,0,0,0-2.81.92,4.24,4.24,0,0,0-1.86,2.27.16.16,0,0,0,.26.16c1.34-1.23,2.61-2.72,4.44-3.2A.08.08,0,0,0,294.9,361.23Z" style="fill:#263238"></path><path d="M297.74,363a6.13,6.13,0,0,0-2.71,1,5.14,5.14,0,0,0-1.76,2.23.15.15,0,0,0,.24.15,18.91,18.91,0,0,1,2-1.78,10.8,10.8,0,0,1,2.27-1.45C297.88,363.1,297.83,363,297.74,363Z" style="fill:#263238"></path><path d="M337.34,284.63c-5.23,3.72-14,12-17.88,19.16-3.55,6.66-8.33,18.2.69,22.62,9.68,4.73,18.72-1.76,21.7-11.44s3.26-22.24,3.26-22.24" style="fill:#FFC727"></path><path d="M337.34,284.63c-5.23,3.72-14,12-17.88,19.16-3.55,6.66-8.33,18.2.69,22.62,9.68,4.73,18.72-1.76,21.7-11.44s3.26-22.24,3.26-22.24" style="opacity:0.1"></path><path d="M424.18,447.06c-1.89,4.63-35.16,1.79-40.25.08-2.75-.9-9.75-14.34-16.77-26.72-6.1-10.71-12.52-22-17.09-27.45-4.45-5.29-12.22-9.19-14.14-19.23,0-9.71,4.56-34,4-34.41s-19.2-2.55-25.38-4.34S301,315,302.28,312.17s20.7-3.54,23.3-5.55,7.49-18.68,12.67-22.72,23.29-.75,33,5.23c6.62,4.06,15.2,46.82,19.35,56.26a.1.1,0,0,0,0,0c.37.5.88,1.21,1.48,2.06,5.44,7.61,19.39,27.1,27,37.37,3.12,4.2,4.76,15.89,5.45,27.9C425.42,427.48,425.24,444.5,424.18,447.06Z" style="fill:#FFC727"></path><path d="M350.88,369.85c-.55.69-1.08,1.4-1.62,2.1a12.33,12.33,0,0,0,.16-2.56,18.82,18.82,0,0,0-.35-2.7c-.17-.95-.49-1.85-.73-2.78a.2.2,0,0,0-.39,0,10.41,10.41,0,0,1-1.93,3.41,12.6,12.6,0,0,1-1.36,1.47,35.54,35.54,0,0,0,1.59-8.86,27.1,27.1,0,0,0-.24-5.25,16.56,16.56,0,0,0-1.37-4.95c0-.08-.18,0-.16.05.24,1.67.57,3.33.67,5A35.43,35.43,0,0,1,345,360a61.86,61.86,0,0,1-2,10.27c-.12.42.43.9.81.59a13.85,13.85,0,0,0,2.8-3A12.07,12.07,0,0,0,348,365l0,1.6c0,.86.05,1.71.05,2.57a21.82,21.82,0,0,1-.16,2.55c-.11.88-.29,1.71-.47,2.58a.46.46,0,0,0,.84.33c.88-1.59,1.9-3.1,2.83-4.66C351.16,369.88,351,369.73,350.88,369.85Z" style="opacity:0.1"></path><path d="M411.9,381.64a29.69,29.69,0,0,0-2.58-2c-.42-.34-.86-.7-1.29-1.08a6,6,0,0,0,3.13-.37.62.62,0,0,0,0-1.18,22.64,22.64,0,0,1-11-7.62c-.06-.08-.19,0-.13.08a21.61,21.61,0,0,0,4.59,5.36,19,19,0,0,0,4.34,2.63,6.4,6.4,0,0,1-2.37-.36.46.46,0,0,0-.43.78c.92.79,1.73,1.68,2.69,2.43a9.09,9.09,0,0,0,2.84,1.75C411.91,382.13,412.06,381.81,411.9,381.64Z" style="opacity:0.1"></path><path d="M345.32,307.79c0-.1.19.17.17.27-.66,2.55-.93,5.58,1.42,7,.08,0,0,.17-.05.14C343.84,314.11,344.25,310.09,345.32,307.79Z" style="fill:#263238"></path><path d="M348.42,305.66c4.59.68,3.13,9-1.13,8.4S344.57,305.09,348.42,305.66Z" style="fill:#263238"></path><path d="M332.47,303.41c0-.1-.23.06-.27.16-.81,2.5-2.14,5.23-4.61,5.29-.07,0-.11.13,0,.15C330.35,309.55,332.09,305.9,332.47,303.41Z" style="fill:#263238"></path><path d="M331.25,300.09c-3.75-1.65-6.91,6.21-3.44,7.74S334.39,301.47,331.25,300.09Z" style="fill:#263238"></path><path d="M309.51,322.73a23.39,23.39,0,0,0,1.42,3.31,4.2,4.2,0,0,0,1.2,1.51.86.86,0,0,0,.32.12.59.59,0,0,0,.46-.13,1.09,1.09,0,0,0,.32-.53,4.68,4.68,0,0,0,.23-.93,23.42,23.42,0,0,0,.26-3.63q0-1.8-.06-3.6l-1,.17c.46,1.67,1,3.31,1.6,4.94.3.81.63,1.61,1,2.41a9.6,9.6,0,0,0,1.38,2.32,1.36,1.36,0,0,0,.76.45,2.32,2.32,0,0,0,.76,0,9.71,9.71,0,0,0,1.29-.37,25.34,25.34,0,0,0,2.4-1c1.56-.75,3.09-1.54,4.57-2.41-1.58.68-3.15,1.37-4.76,2-.8.29-1.6.61-2.41.84a7.69,7.69,0,0,1-1.2.28,1.53,1.53,0,0,1-.52,0c-.08,0-.17-.1-.3-.24a10.86,10.86,0,0,1-1.11-2.18c-.32-.78-.6-1.58-.88-2.38-.57-1.61-1.07-3.25-1.56-4.88l-1.26-4.16.23,4.33c.06,1.18.11,2.37.15,3.56s.05,2.37-.05,3.52a5.2,5.2,0,0,1-.13.82,1.2,1.2,0,0,1-.1.25c.08,0,0,0-.05-.05a4.51,4.51,0,0,1-1.1-1.21C310.66,324.83,310.09,323.77,309.51,322.73Z" style="fill:#263238"></path><path d="M313.32,319.69c1.43.19,8.82-2.29,8.43-4.13-.67-3.15-13.69-5.47-15.38-3.46C305.26,313.41,311.49,319.45,313.32,319.69Z" style="fill:#263238"></path><path d="M355.62,337c.08,0,.05-.15,0-.14-1.27.19-2.54.43-3.8.68s-2.64.4-4,.58c-2.61.37-5.2.84-7.82,1.16a.08.08,0,0,0,0,.15,19.64,19.64,0,0,0,7.75-.26c1.35-.08,2.69-.18,4-.31.12,0,.1-.2,0-.19-1,.06-1.95.14-2.93.22.95-.26,1.9-.54,2.85-.79C353,337.8,354.32,337.45,355.62,337Z" style="fill:#263238"></path><path d="M371.74,289.66c5.11,3.88,13.66,12.4,17.27,19.71,3.34,6.76,7.77,18.45-1.39,22.58-9.82,4.44-18.66-2.33-21.34-12.1s-2.56-22.33-2.56-22.33" style="fill:#FFC727"></path><path d="M386.81,332.15c-4.9,2.74-11.06.44-14.6-3.43-4.1-4.47-5.67-10.75-6.8-16.54A96.52,96.52,0,0,1,364,300.43a.15.15,0,0,0-.29,0,41.75,41.75,0,0,0-.09,6c-.13-.33-.26-.65-.37-1a24.32,24.32,0,0,1-.94-3.26s-.09,0-.08,0a16.1,16.1,0,0,0,.55,3.39,10,10,0,0,0,.57,1.62,6.19,6.19,0,0,0,.36.67c.1,1.21.22,2.43.38,3.64a48.23,48.23,0,0,0,2.35,9.92,23.46,23.46,0,0,0,4.55,7.92,14.45,14.45,0,0,0,7.22,4.32,10.58,10.58,0,0,0,8.65-1.42A.08.08,0,0,0,386.81,332.15Z" style="fill:#263238"></path><path d="M346.92,383.38c.52,3.88,2.26,60.66,2.24,61.44s-4.91,2.45-5.92,4.06-2.11,4.42-1.52,5.2,6.24,2.28,7.94,2.61,10.27-1.51,11.58-2.11,2.16-6,2.34-6.66,11-41.18,10.89-44.77S346.92,383.38,346.92,383.38Z" style="fill:#FFC727"></path><path d="M347.56,387.86c-.19-3.5-.54-7-.77-10.5a.07.07,0,0,0-.13,0c0,2.35-.06,4.71,0,7.06-.12-.5-.24-1-.35-1.52-.26-1.3-.47-2.62-.61-3.94,0,0-.09,0-.09,0a23.44,23.44,0,0,0,.35,4,18.88,18.88,0,0,0,.72,2.85c0,.71,0,1.41.06,2.12a68,68,0,0,0,1,10.38.08.08,0,0,0,.16,0A91.34,91.34,0,0,0,347.56,387.86Z" style="fill:#263238"></path><path d="M379.79,395.59c-.71,1.64-1.45,3.28-2.27,4.87-.29.57-.63,1.13-.95,1.7.77-2.8,1.52-5.6,2.2-8.42,0-.07-.08-.1-.1,0-1.66,4.63-3.14,9.32-4.6,14-.73,2.33-1.46,4.66-2.09,7a50.33,50.33,0,0,0-1.7,7c0,.07.11.11.14,0a51.71,51.71,0,0,0,2.43-6.79c.75-2.31,1.42-4.66,2.09-7,.42-1.48.83-2.95,1.24-4.43.2-.38.44-.76.66-1.13.44-.73.85-1.49,1.24-2.25a26.81,26.81,0,0,0,1.83-4.56C379.94,395.55,379.83,395.52,379.79,395.59Z" style="fill:#263238"></path><path d="M345.85,448.71a6.41,6.41,0,0,0-1.58.94,5.27,5.27,0,0,0-1.1,1.59,6.16,6.16,0,0,0-.5,2.06,2.65,2.65,0,0,0,.31,1.75c.08.1.27,0,.23-.11-.17-.55.63-2.88.85-3.43a6.92,6.92,0,0,1,.71-1.38,3.65,3.65,0,0,1,1.15-1.29C346,448.8,345.93,448.67,345.85,448.71Z" style="fill:#263238"></path><path d="M350.53,449.81a7,7,0,0,0-1.8,1,5.06,5.06,0,0,0-1.27,1.63c-.59,1.18-.84,2.86.08,3.95a.07.07,0,0,0,.13-.06,3.52,3.52,0,0,1,0-1.93,7.8,7.8,0,0,1,.56-1.69,7.34,7.34,0,0,1,.94-1.47,4.7,4.7,0,0,1,1.43-1.27C350.69,449.9,350.62,449.77,350.53,449.81Z" style="fill:#263238"></path><path d="M360.61,432.43a.29.29,0,0,0-.56-.08,5.92,5.92,0,0,1-1.34,2.27c.35-3.05.44-6.21-1-9a.08.08,0,0,0-.15.06c1.09,3.26.53,6.77,0,10.09a.5.5,0,0,0,.79.47,5,5,0,0,0,1.77-1.94c.06,1.2.13,2.4.28,3.58,0,.19.34.21.35,0C360.8,436.07,360.68,434.24,360.61,432.43Z" style="opacity:0.1"></path><path d="M410.42,411.62c-3.29-5.49-26.83-23.35-35.87-17.95s-12.9,31.87,4.76,51.85c0,0-8.76,1.27-10.52,2.27s-4,4.75-3.31,5.78,7.49,3.09,9.24,3.29,23.14-2.89,24.75-3.52-.28-2.89-.28-2.89,16,.43,20.4-3.16S415.46,420,410.42,411.62Z" style="fill:#FFC727"></path><path d="M370.36,448.58a6.47,6.47,0,0,0-1.58.94,5,5,0,0,0-1.09,1.58,5.72,5.72,0,0,0-.5,2.07,2.65,2.65,0,0,0,.31,1.75.14.14,0,0,0,.23-.11c-.18-.56.62-2.88.85-3.43a6.75,6.75,0,0,1,.71-1.39,3.78,3.78,0,0,1,1.14-1.28A.07.07,0,1,0,370.36,448.58Z" style="fill:#263238"></path><path d="M375.05,449.67a6.84,6.84,0,0,0-1.8,1,4.86,4.86,0,0,0-1.28,1.63c-.58,1.18-.83,2.86.09,4,0,0,.15,0,.12-.07a3.58,3.58,0,0,1,0-1.92,7.62,7.62,0,0,1,.56-1.69,7.53,7.53,0,0,1,.93-1.48,4.57,4.57,0,0,1,1.44-1.26C375.21,449.77,375.14,449.63,375.05,449.67Z" style="fill:#263238"></path><path d="M407.52,408.19a52.06,52.06,0,0,0-6.32-6.11l.54.24c1.07.53,2.13,1.07,3.18,1.64.07,0,.16-.06.1-.12a8.63,8.63,0,0,0-3-2,16.39,16.39,0,0,0-1.76-.57l-.09,0a52.24,52.24,0,0,0-8.53-5.4c-5.48-2.78-13-6-18.28-1.05-2.34,2.19-3.74,5.33-4.73,8.37A37.48,37.48,0,0,0,366.84,414a51.67,51.67,0,0,0,4.61,21.33,24.07,24.07,0,0,0,6.19,8.9,22,22,0,0,0,4.28,2.88,23.67,23.67,0,0,0,4.91,1.73c.09,0,.14-.13.05-.15a21.29,21.29,0,0,1-7.73-4.36,23.08,23.08,0,0,1-5.69-7.23,53.62,53.62,0,0,1-3.68-9.89A48.33,48.33,0,0,1,368.05,417a37.74,37.74,0,0,1,.84-10.65,24.84,24.84,0,0,1,3.73-9,8.81,8.81,0,0,1,7.5-4c3.23.08,6.36,1.45,9.28,2.74a62.92,62.92,0,0,1,18,12.17C407.48,408.39,407.6,408.27,407.52,408.19Z" style="fill:#263238"></path><path d="M398.23,447.56a4.74,4.74,0,0,0-.13-1.5,11,11,0,0,0-.65-1.85c0-.07-.14,0-.12.06a16.54,16.54,0,0,1,.42,1.88c0,.23.07.45.11.67,0-.08-.07-.16-.11-.23-.69-1.26-1.42-2.5-2.17-3.72,0,0-.1,0-.08,0,.55,1.34,1.09,2.69,1.67,4,.28.65.59,1.29.92,1.93a4,4,0,0,0,1.05,1.51.08.08,0,0,0,.12-.07,4.22,4.22,0,0,0-.57-1.81C398.54,448.17,398.38,447.87,398.23,447.56Z" style="fill:#263238"></path><path d="M410.21,415.81a15.31,15.31,0,0,1-4-1.22,11.17,11.17,0,0,1-3.22-2.75c-.07-.07-.17,0-.11.12a14.93,14.93,0,0,0,3.06,3.14,10.91,10.91,0,0,0,2.38,1.15,6.43,6.43,0,0,1-1.16.12,2.36,2.36,0,0,1-2.07-.83c-.09-.15-.36,0-.29.13a8.29,8.29,0,0,0,3.09,4,5.12,5.12,0,0,1-1.56-.28c-.14,0-.22.16-.09.23a5.81,5.81,0,0,0,3.14.71.45.45,0,0,0,.2-.83,19.2,19.2,0,0,1-2.53-1.64,9.26,9.26,0,0,1-1-1,5.9,5.9,0,0,0,4.18-.13A.49.49,0,0,0,410.21,415.81Z" style="opacity:0.1"></path></g></svg>
